<?xml version="1.0" standalone="no"?>
<!DOCTYPE svg PUBLIC "-//W3C//DTD SVG 20010904//EN"
 "http://www.w3.org/TR/2001/REC-SVG-20010904/DTD/svg10.dtd">
<svg version="1.0" xmlns="http://www.w3.org/2000/svg"
 width="122.000000pt" height="122.000000pt" viewBox="0 0 122.000000 122.000000"
 preserveAspectRatio="xMidYMid meet">
<metadata>
Created by potrace 1.11, written by Peter Selinger 2001-2013
</metadata>
<g transform="translate(0.000000,122.000000) scale(0.100000,-0.100000)"
fill="#000000" stroke="none">
<path d="M507 1009 c-50 -12 -113 -44 -162 -84 -31 -24 -53 -33 -96 -38 -197
-20 -308 -237 -210 -412 33 -58 95 -110 151 -125 23 -6 120 -9 235 -8 l197 3
-88 75 c-129 110 -123 107 -113 57 4 -23 8 -45 9 -49 0 -5 -42 -8 -92 -8 -104
0 -154 17 -200 66 -75 80 -62 212 28 281 31 23 49 28 111 31 68 4 75 6 88 32
20 39 81 89 145 119 48 23 68 26 162 26 113 0 117 5 22 30 -64 16 -128 18
-187 4z"/>
<path d="M630 929 c-52 -10 -142 -53 -161 -76 -12 -14 -9 -13 21 2 51 26 165
32 228 11 64 -22 133 -82 161 -141 l21 -45 54 6 c45 5 61 3 94 -16 77 -43 103
-137 59 -214 -39 -68 -66 -76 -269 -76 -98 0 -178 -3 -178 -7 1 -7 93 -81 207
-167 l25 -19 -7 34 c-3 19 -9 42 -11 52 -5 15 3 17 78 17 102 0 148 19 204 83
91 103 86 235 -11 332 -50 51 -101 74 -161 76 -23 0 -37 11 -66 48 -62 82
-179 122 -288 100z"/>
<path d="M382 738 c-31 -31 -3 -82 40 -76 29 4 25 22 -5 23 -29 0 -31 39 -2
41 38 3 40 4 25 14 -20 13 -44 12 -58 -2z"/>
<path d="M460 705 c0 -25 5 -45 10 -45 6 0 10 10 10 23 1 21 1 22 15 3 15 -20
15 -20 30 0 14 19 14 18 15 -3 0 -13 5 -23 10 -23 6 0 10 20 10 45 0 51 -13
58 -33 18 l-14 -26 -18 26 c-25 39 -35 33 -35 -18z"/>
<path d="M590 708 c-19 -44 -19 -61 2 -40 16 16 45 15 51 0 2 -7 8 -10 12 -6
10 9 -24 88 -37 88 -5 0 -17 -19 -28 -42z m35 2 c3 -5 1 -10 -4 -10 -6 0 -11
5 -11 10 0 6 2 10 4 10 3 0 8 -4 11 -10z"/>
<path d="M670 705 c0 -25 5 -45 10 -45 6 0 10 4 10 9 0 5 10 11 21 13 55 8 44
68 -12 68 -28 0 -29 -2 -29 -45z m53 10 c1 -5 -6 -11 -15 -13 -11 -2 -18 3
-18 13 0 17 30 18 33 0z"/>
<path d="M750 740 c0 -5 7 -10 15 -10 10 0 15 -11 15 -35 0 -19 5 -35 10 -35
6 0 10 16 10 35 0 24 5 35 15 35 8 0 15 5 15 10 0 6 -18 10 -40 10 -22 0 -40
-4 -40 -10z"/>
<path d="M330 585 c0 -25 5 -45 10 -45 6 0 10 7 10 15 0 8 5 15 10 15 6 0 13
-7 16 -15 7 -17 49 -20 59 -5 9 14 42 12 48 -2 2 -7 8 -10 12 -6 9 9 -24 88
-37 88 -4 0 -16 -17 -25 -37 -23 -51 -23 -51 -39 -29 -12 17 -12 23 1 43 13
20 13 23 1 23 -8 0 -18 -9 -21 -20 -3 -11 -11 -20 -16 -20 -5 0 -9 9 -9 20 0
11 -4 20 -10 20 -5 0 -10 -20 -10 -45z m135 5 c3 -5 1 -10 -4 -10 -6 0 -11 5
-11 10 0 6 2 10 4 10 3 0 8 -4 11 -10z"/>
<path d="M523 619 c-31 -32 -5 -83 39 -77 29 4 25 22 -5 23 -35 0 -30 40 6 41
22 1 27 -3 27 -23 0 -27 38 -50 66 -39 21 8 10 20 -19 21 -15 0 -22 6 -22 20
0 16 6 20 28 18 18 -1 27 2 24 10 -2 7 -17 11 -33 10 -46 -4 -48 -4 -74 2 -15
4 -30 1 -37 -6z"/>
<path d="M690 585 c0 -52 10 -56 39 -17 l20 27 1 -27 c0 -16 5 -28 10 -28 6 0
10 20 10 45 0 51 -10 56 -39 19 l-21 -27 0 27 c0 14 -4 26 -10 26 -5 0 -10
-20 -10 -45z"/>
<path d="M790 585 c0 -25 5 -45 10 -45 6 0 10 4 10 9 0 5 9 11 20 14 45 12 31
67 -16 67 -22 0 -24 -4 -24 -45z m48 13 c-6 -18 -28 -21 -28 -4 0 9 7 16 16
16 9 0 14 -5 12 -12z"/>
</g>
</svg>
