<?xml version="1.0" encoding="utf-8"?>
<!-- Generator: Adobe Illustrator 19.0.1, SVG Export Plug-In . SVG Version: 6.00 Build 0)  -->
<svg version="1.1" id="Layer_1" xmlns="http://www.w3.org/2000/svg" xmlns:xlink="http://www.w3.org/1999/xlink" x="0px" y="0px"
	 width="130px" height="130px" viewBox="135 130 130 130">
<style type="text/css">
	.st0{fill:#08214D;}
	.st1{fill:#1084FE;}
	.st2{fill:#16396D;}
	.st3{fill:#41A2F9;}
</style>
<g>
	<path class="st0" d="M238.5,182.7c-1.5-0.1-2.9-0.1-4.4,0c-2.7-5.2-6.7-9.2-11.8-12c-4-2.1-8.6-3.5-13.4-3.5
		c-9.9,0-18.9,4-25.4,10.4c4.9-3.5,11-5.5,17.4-5.5c11.9,0,22.6,6.8,26.5,16.9l1.4,3.6c5.1-1.2,9.8-2.2,14.7,0.4
		c5,2.6,8.5,7.9,8.5,14c0,4.6-2,8.7-5.3,11.8c-5.4,5-13.3,3.8-20.1,3.9c-6,0.1-21,0-22.5,0l23.6,18.5l-1.7-9.7c1.6,0,10.1,0,10.4,0
		c13.5,0,24.4-11,24.4-24.5C260.8,194.2,251,183.7,238.5,182.7z"/>
	<path class="st1" d="M166.8,180.3c3.3,0,6.9,1.1,6.9,1.1s6.8-18.8,33.2-18.8c4.8,0,9.4,1,13.6,2.7c-6.2-4.1-13.7-6.4-21.6-6.4
		c-11.2,0-22,4.8-28.9,12.9c-1.1-0.1-2.2-0.2-3.2-0.2c-15.2,0-27.6,12.4-27.6,27.7c0,15,11.2,27.3,27,27.6v0h36.2l-22.3-19l1.7,10.5
		c-1.4,0-14.4,0-14.8,0c-10.4,0-19.2-8.7-19.2-19C147.9,188.8,156.4,180.3,166.8,180.3z"/>
	<path class="st2" d="M225.4,183.1c2.5-0.3,5-0.4,7.6-0.5c-2.6-4.8-6.4-8.5-11.1-11c-4.2-2.2-8.5-3.3-12.9-3.3
		c-5.8,0-11.4,1.4-16.4,4c2.7-0.7,5.5-1.1,8.4-1.1C211,171.2,220.1,175.8,225.4,183.1z"/>
	<path class="st3" d="M167.7,219.3h-0.6c-10.9,0-20.2-9.2-20.2-20.1c0-11,8.9-20,19.9-20.1c2.4,0,4.9,0.5,6.2,0.9
		c0.8-1.6,2.7-5.3,6.6-8.9c4.7-4.4,13.2-9.7,27.2-9.7c1.4,0,2.8,0.1,4.1,0.2c-3.8-1.3-7.9-1.9-12.1-1.9c-10.9,0-21.4,4.7-28.1,12.5
		l-0.4,0.4l-0.6-0.1c-1.1-0.1-2.1-0.2-3-0.2c-14.6,0-26.5,12-26.5,26.7c0,14.1,10.1,25.2,23.9,26.5
		C165.2,223.5,166.4,221.4,167.7,219.3z"/>
	<path class="st0" d="M176.2,190.6c0-2.5,1.9-4.3,4.6-4.3c1.5,0,2.7,0.5,3.5,1.5l-1.2,1.2c-0.6-0.6-1.3-1-2.1-1
		c-1.6,0-2.7,1.1-2.7,2.7c0,1.6,1.1,2.7,2.7,2.7c0.8,0,1.5-0.3,2.1-1l1.2,1.2c-0.8,1-2,1.5-3.5,1.5
		C178.1,194.9,176.2,193.1,176.2,190.6z M193.1,194.8l0-5l-2.5,4.1h-0.9l-2.5-4v4.9h-1.8v-8.4h1.6l3.1,5.2l3.1-5.2h1.6l0,8.4H193.1z
		 M202.7,193h-3.9l-0.7,1.8h-2l3.7-8.4h1.9l3.8,8.4h-2L202.7,193z M202.1,191.5l-1.3-3.2l-1.3,3.2H202.1z M213.9,189.4
		c0,1.9-1.4,3-3.6,3h-1.7v2.3h-1.9v-8.4h3.6C212.5,186.4,213.9,187.5,213.9,189.4z M211.9,189.4c0-0.9-0.6-1.5-1.8-1.5h-1.6v2.9h1.6
		C211.3,190.9,211.9,190.3,211.9,189.4z M221.4,187.9h-2.7v6.8h-1.9v-6.8h-2.7v-1.6h7.3V187.9z M176.1,203.4h-1.3v3.4h-1.9v-8.4h1.9
		v3.4h1.4l2.2-3.4h2.1l-2.7,4.1l2.8,4.3h-2.2L176.1,203.4z M186.9,205H183l-0.7,1.8h-2l3.7-8.4h1.9l3.8,8.4h-2L186.9,205z
		 M186.3,203.5l-1.3-3.2l-1.3,3.2H186.3z M190.1,202.6c0-2.5,1.9-4.3,4.6-4.3c1.5,0,2.7,0.5,3.5,1.5l-1.2,1.2c-0.6-0.6-1.3-1-2.1-1
		c-1.6,0-2.7,1.1-2.7,2.7c0,1.6,1.1,2.7,2.7,2.7c0.8,0,1.5-0.3,2.1-1l1.2,1.2c-0.8,1-2,1.5-3.5,1.5
		C192.1,206.9,190.1,205.1,190.1,202.6z M198.7,202.6c0-2.5,1.9-4.3,4.6-4.3c1.5,0,2.7,0.5,3.5,1.5l-1.2,1.2c-0.6-0.6-1.3-1-2.1-1
		c-1.6,0-2.7,1.1-2.7,2.7c0,1.6,1.1,2.7,2.7,2.7c0.8,0,1.5-0.3,2.1-1l1.2,1.2c-0.8,1-2,1.5-3.5,1.5
		C200.6,206.9,198.7,205.1,198.7,202.6z M208,198.4h1.9v5.5l4-5.5h1.8v8.4h-1.9v-5.5l-4,5.5H208V198.4z M225.1,201.4
		c0,1.9-1.4,3-3.6,3h-1.7v2.3h-1.9v-8.4h3.6C223.7,198.4,225.1,199.5,225.1,201.4z M223.1,201.4c0-0.9-0.6-1.5-1.8-1.5h-1.6v2.9h1.6
		C222.5,202.9,223.1,202.3,223.1,201.4z"/>
</g>
</svg>